<svg xmlns="http://www.w3.org/2000/svg" xmlns:xlink="http://www.w3.org/1999/xlink" version="1.1" width="256" height="256" viewBox="0 0 256 256" xml:space="preserve">

<defs>
</defs>
<g style="stroke: none; stroke-width: 0; stroke-dasharray: none; stroke-linecap: butt; stroke-linejoin: miter; stroke-miterlimit: 10; fill: none; fill-rule: nonzero; opacity: 1;" transform="translate(1.4065934065934016 1.4065934065934016) scale(2.81 2.81)" >
	<path d="M 45 0 C 28.967 0 14.902 8.392 6.932 21.015 c 2.729 1.97 6.069 3.145 9.693 3.145 h 32.399 c 17.08 0 32.123 8.704 40.948 21.915 C 89.981 45.716 90 45.36 90 45 C 90 20.147 69.853 0 45 0 z" style="stroke: none; stroke-width: 1; stroke-dasharray: none; stroke-linecap: butt; stroke-linejoin: miter; stroke-miterlimit: 10; fill: rgb(29,161,242); fill-rule: nonzero; opacity: 1;" transform=" matrix(1 0 0 1 0 0) " stroke-linecap="round" />
	<path d="M 90 45 c 0 -1.207 -0.062 -2.399 -0.155 -3.583 C 81.002 27.735 66.02 20.885 49.024 20.885 H 16.625 c -3.159 0 -6.101 -0.494 -8.614 -1.504 C 3.387 26.046 0.51 34.014 0.063 42.629 c 9.023 11.127 22.794 18.247 38.236 18.247 h 0.744 c 9.038 0 13.101 3.942 13.329 12.925 c 0.004 -0.143 0.022 -0.282 0.022 -0.426 c 0 8.417 -3.516 15.355 -11.172 16.456 C 42.469 89.934 43.726 90 45 90 C 69.853 90 90 69.853 90 45 z" style="stroke: none; stroke-width: 1; stroke-dasharray: none; stroke-linecap: butt; stroke-linejoin: miter; stroke-miterlimit: 10; fill: rgb(27,148,222); fill-rule: nonzero; opacity: 1;" transform=" matrix(1 0 0 1 0 0) " stroke-linecap="round" />
	<path d="M 41.27 89.834 c 7.988 -1.072 14.169 -7.802 14.378 -16.034 c -0.228 -8.983 -7.566 -16.2 -16.604 -16.2 h -0.744 c -15.296 0 -28.947 -6.992 -37.973 -17.938 C 0.119 41.414 0 43.193 0 45 C 0 68.595 18.164 87.936 41.27 89.834 z" style="stroke: none; stroke-width: 1; stroke-dasharray: none; stroke-linecap: butt; stroke-linejoin: miter; stroke-miterlimit: 10; fill: rgb(25,137,205); fill-rule: nonzero; opacity: 1;" transform=" matrix(1 0 0 1 0 0) " stroke-linecap="round" />
	<path d="M 35.724 65.314 c 18.868 0 29.188 -15.632 29.188 -29.188 c 0 -0.444 0 -0.886 -0.03 -1.326 c 2.008 -1.452 3.741 -3.25 5.118 -5.31 c -1.872 0.829 -3.858 1.374 -5.892 1.614 c 2.142 -1.282 3.744 -3.298 4.51 -5.674 c -2.014 1.195 -4.217 2.037 -6.514 2.49 c -3.885 -4.131 -10.383 -4.331 -14.515 -0.446 c -2.664 2.506 -3.794 6.239 -2.968 9.802 c -8.247 -0.414 -15.932 -4.309 -21.141 -10.718 c -2.723 4.687 -1.332 10.684 3.176 13.694 c -1.633 -0.048 -3.229 -0.489 -4.656 -1.284 c 0 0.042 0 0.086 0 0.13 c 0.001 4.883 3.443 9.089 8.23 10.056 c -1.51 0.412 -3.095 0.472 -4.632 0.176 c 1.344 4.179 5.195 7.042 9.584 7.124 c -3.633 2.855 -8.12 4.404 -12.74 4.4 c -0.816 -0.002 -1.631 -0.051 -2.442 -0.148 c 4.691 3.011 10.15 4.607 15.724 4.6" style="stroke: none; stroke-width: 1; stroke-dasharray: none; stroke-linecap: butt; stroke-linejoin: miter; stroke-miterlimit: 10; fill: rgb(255,255,255); fill-rule: nonzero; opacity: 1;" transform=" matrix(1 0 0 1 0 0) " stroke-linecap="round" />
</g>
</svg>